<svg xmlns="http://www.w3.org/2000/svg" viewBox="0 0 135.1 135.1" enable-background="new 0 0 135.1 135.1"><filter class="b" id="c"><feFlood flood-opacity=".61"/><feComposite in2="SourceGraphic" operator="in"/><feGaussianBlur stdDeviation=".5"/><feOffset dx=".8" dy=".8"/><feComposite in="SourceGraphic" result="A"/><feColorMatrix values="0 0 0 -1 0 0 0 0 -1 0 0 0 0 -1 0 0 0 0 1 0"/><feFlood flood-opacity=".4"/><feComposite in2="A" operator="in"/><feGaussianBlur stdDeviation="3.8"/><feOffset dx="2.3" dy="3.3"/><feComposite in="A"/></filter><linearGradient id="a" gradientUnits="userSpaceOnUse" x1="-127.685" y1="212.353" x2="-125.725" y2="310.933" gradientTransform="matrix(1 0 0 -1 194.2 328.07)"><stop offset="0" stop-color="#005ad5"/><stop offset=".16" stop-color="#0875f0"/><stop offset=".31" stop-color="#218cee"/><stop offset=".63" stop-color="#27a5f3"/><stop offset=".81" stop-color="#25aaf2"/><stop offset="1" stop-color="#21aaef"/></linearGradient><circle cx="67.5" cy="67.7" fill="url(#a)" r="54"/><radialGradient id="b" cx="-261.887" cy="345.235" r="54.01" gradientTransform="matrix(.9023 -.01249 -.0377 -2.7234 316.786 1004.65)" gradientUnits="userSpaceOnUse"><stop offset="0" stop-color="#24a5f3" stop-opacity=".01"/><stop offset="1" stop-color="#1e8ceb" stop-opacity=".98"/></radialGradient><circle cx="67.5" cy="67.7" fill="url(#b)" r="54"/><g transform="matrix(.58289 0 0 .56508 196.8 181.63)" filter="url(#c)"><path d="M-287.7-144.8l.7.4 72.2-48.2-7.3-8.9-65.6 56.7z" fill="#cac7c8"/><path d="M-287.9-145.5l.2.8 65.6-56.8-6.9-8.9-58.9 64.9z" fill="#fbfffc"/><linearGradient id="d" gradientUnits="userSpaceOnUse" x1="-346.743" y1="-98.54" x2="-329.163" y2="-81.36" gradientTransform="matrix(.5829 0 0 -.5651 27.205 -295.31)"><stop offset="0" stop-color="#c72e24"/><stop offset="1" stop-color="#fd3b2f"/></linearGradient><path d="M-214.8-192.6l-7.4-8.9 66.1-57.2.3.7-59 65.4z" fill="url(#d)"/><path d="M-229.1-210.5l6.9 8.9 66.1-57.2-.6-.4c0 .1-72.4 48.7-72.4 48.7z" fill="#fb645c"/></g><path d="M27.1 96.1l3.1-2.1M19 76.1l7.8-1.4m-8.3-2.8l3.8-.3M19 59.1l7.8 1.4m-8.2 3l3.8.4m-1.3-13.1l7.5 2.7m-3.8-10.4l6.9 4m-1.9-11l6.1 5.1m0-11.1l5.1 6.1m2-11l4 6.9m3.7-10.6l2.7 7.4m5.6-9.6l1.4 7.8M76 19.2L74.6 27m9.8-5.6l-2.7 7.4m10.5-3.7l-4 6.9m11-2l-5.1 6.1m16.2 7l-6.9 4m10.5 3.8l-7.5 2.7m9.6 5.6l-7.8 1.4m7.8 15.8l-7.8-1.4m5.6 9.7l-7.4-2.7m3.8 10.5l-6.9-4m1.9 11l-6.1-5.1m0 11.2L94 99.5m-2 11l-4-6.9m-3.8 10.6l-2.7-7.4m-5.6 9.5l-1.4-7.8m-15.8 7.8l1.4-7.9m-9.7 5.6l2.7-7.5m-10.5 3.8l4-6.9m-11 1.9l5.1-6m-8.2 3.1l2.8-2.7m3.8 8.3l2.2-3.1m5.2 7.4l1.7-3.5m6.3 6.5l1-3.7m7.6 5.3l.4-3.8m8.1 3.8l-.3-3.8m8.8 2.3l-1-3.7m9.1.8l-1.6-3.5m9.1-.8l-2.2-3.2m8.8-2.3l-2.7-2.7m8.2-3.9l-3.1-2.2m7.4-5.2l-3.5-1.7m6.5-6.4l-3.7-1m5.2-7.5l-3.8-.4m3.8-8.2l-3.8.3m2.3-8.8l-3.7 1m.8-9.1l-3.5 1.6m-1-9.1l-3.2 2.2m-2.1-8.6l-2.7 2.7m-3.9-8.3l-2.2 3.1m-5.2-7.4l-1.7 3.4m-6.5-6.3l-1 3.6m-7.5-5.2l-.4 3.8m-8-3.6l.3 3.8m-8.8-2.4l1 3.7m-9-.7l1.6 3.5m-9 .8l2.2 3.2m-8.9 2.2l2.7 2.7m-8.3 3.9l3.1 2.2m-7.4 5.2l3.4 1.7m-6.3 6.3l3.7 1.1m-3.7 24.3l3.7-.9m-2.4 5l7.5-2.7m-5.9 6.7l3.5-1.6m-1.5 5.5l6.9-4M18.3 67.8h8m41.1-41.4v-8m0 98.7v-7.9m49.4-41.4h-8" stroke="#fff" stroke-width="1.33" stroke-linecap="round" stroke-miterlimit="1"/></svg>